<?xml version="1.0" encoding="UTF-8"?><svg id="a" xmlns="http://www.w3.org/2000/svg" width="1000" height="1000" viewBox="0 0 1000 1000"><rect y="0" width="1000" height="1000" rx="149.99" ry="149.99"/><path d="M711.35,467.15l265.88,199.68-286.85-315.43-105.45,99.41-132.51-153.78L23.62,657.08l.17.34-1.02.51,1.04-.49,269.29-135.26,168.54,145.07-110.26-173.17,119.1-60.1,71.07,55.35-70.71,65.16,59.67,42.12,78.2-56.14,162.14,127.15-129.1-150.37,69.61-50.1ZM381.69,386.24c5.44-16.53,48-52.34,61.57-52.21-.7,20.53-39.56,53.8-61.57,52.21ZM685.99,385.27c-4.98,19.34-34.02,44.07-49.77,42.81,2.37-13.64,35.49-42.47,49.77-42.81Z" fill="#fff"/></svg>